<svg width="81" height="83" viewBox="0 0 81 83" fill="none" xmlns="http://www.w3.org/2000/svg">
<path d="M61.2213 0C56.0954 0 51.1795 2.08164 47.555 5.78696C43.9306 9.4923 41.8944 14.5178 41.8944 19.758C41.8944 24.998 43.9306 30.0236 47.555 33.7289C51.1795 37.4342 56.0954 39.5159 61.2213 39.5159C66.3471 39.5159 71.2629 37.4342 74.8874 33.7289C78.5119 30.0236 80.5481 24.998 80.5481 19.758C80.5481 14.5178 78.5119 9.4923 74.8874 5.78696C71.2629 2.08164 66.3471 0 61.2213 0Z" fill="black"/>
<path d="M19.3383 0C14.2126 0 9.29665 2.08164 5.67217 5.78696C2.04767 9.4923 0.0114746 14.5178 0.0114746 19.758C0.0114746 24.998 2.04767 30.0236 5.67217 33.7289C9.29665 37.4342 14.2126 39.5159 19.3383 39.5159C24.4641 39.5159 29.38 37.4342 33.0045 33.7289C36.629 30.0236 38.6652 24.998 38.6652 19.758C38.6652 14.5178 36.629 9.4923 33.0045 5.78696C29.38 2.08164 24.4641 0 19.3383 0Z" fill="black"/>
<path d="M48.3433 42.8027L41.8803 49.4097L74.0982 82.3463L80.5612 75.7392L48.3433 42.8027Z" fill="black"/>
<path d="M74.1005 42.811L41.8825 75.7475L48.3455 82.3546L80.5634 49.4181L74.1005 42.811Z" fill="black"/>
<path d="M6.46293 42.8082L0 49.4152L32.2179 82.3518L38.6809 75.7447L6.46293 42.8082Z" fill="black"/>
<path d="M32.2201 42.8164L0.00222778 75.753L6.46516 82.36L38.6831 49.4235L32.2201 42.8164Z" fill="black"/>
</svg>
